<svg width="650" height="460" viewBox="0 0 650 460" fill="none" xmlns="http://www.w3.org/2000/svg">
<path fill-rule="evenodd" clip-rule="evenodd" d="M401.012 3.1768C275.424 -16.0921 223.167 56.9851 179.692 96.1842C136.217 135.383 -11.6618 157.622 0.735352 243.184C12.5408 324.662 109.62 350.774 179.692 393.932C230.043 424.943 288.413 462.452 347.441 459.058C402.446 455.897 488.923 408.057 533.512 375.677C590.025 334.638 646.281 304.638 649.692 234.854C653.136 164.404 581.827 171.039 533.512 119.677C482.551 65.5012 474.509 14.4533 401.012 3.1768Z" fill="url(#paint0_linear)" fill-opacity="0.6"/>
<path d="M529.686 236.833H245.495V382.159H529.686V236.833Z" fill="#FCA311"/>
<path d="M431.875 225.456C446.398 225.456 458.172 213.702 458.172 199.202C458.172 184.702 446.398 172.948 431.875 172.948C417.352 172.948 405.578 184.702 405.578 199.202C405.578 213.702 417.352 225.456 431.875 225.456Z" fill="#FFB443"/>
<path d="M332.142 323.923H331.282V371.548H332.142V323.923Z" fill="#3F3D56"/>
<path d="M331.712 330.658C335.437 330.658 338.457 327.643 338.457 323.923C338.457 320.204 335.437 317.188 331.712 317.188C327.986 317.188 324.966 320.204 324.966 323.923C324.966 327.643 327.986 330.658 331.712 330.658Z" fill="#3F3D56"/>
<path d="M331.712 353.275C331.712 353.275 330.748 332.582 310.993 334.987L331.712 353.275Z" fill="#3F3D56"/>
<path d="M427.164 213.029H426.305V371.882H427.164V213.029Z" fill="#3F3D56"/>
<path d="M426.734 219.689C430.46 219.689 433.48 216.673 433.48 212.954C433.48 209.234 430.46 206.219 426.734 206.219C423.009 206.219 419.989 209.234 419.989 212.954C419.989 216.673 423.009 219.689 426.734 219.689Z" fill="#3F3D56"/>
<path d="M406.016 334.619C409.741 334.619 412.761 331.604 412.761 327.884C412.761 324.165 409.741 321.15 406.016 321.15C402.29 321.15 399.27 324.165 399.27 327.884C399.27 331.604 402.29 334.619 406.016 334.619Z" fill="#3F3D56"/>
<path d="M426.734 247.355C426.734 247.355 425.771 226.662 406.016 229.068L426.734 247.355Z" fill="#3F3D56"/>
<path d="M426.734 306.017C426.734 306.017 425.771 285.324 406.016 287.73L426.734 306.017Z" fill="#3F3D56"/>
<path d="M427.162 370.076L426.307 369.984C426.332 369.752 428.699 346.589 418.983 334.919C417.394 332.977 415.417 331.387 413.179 330.25C410.941 329.112 408.49 328.452 405.983 328.312L406.049 327.457C408.672 327.604 411.235 328.295 413.576 329.485C415.917 330.676 417.983 332.34 419.645 334.372C429.593 346.323 427.187 369.84 427.162 370.076Z" fill="#3F3D56"/>
<path d="M447.456 334.619C451.181 334.619 454.202 331.604 454.202 327.884C454.202 324.165 451.181 321.15 447.456 321.15C443.73 321.15 440.71 324.165 440.71 327.884C440.71 331.604 443.73 334.619 447.456 334.619Z" fill="#3F3D56"/>
<path d="M426.31 370.076C426.285 369.84 423.879 346.323 433.827 334.372C435.488 332.34 437.555 330.676 439.896 329.485C442.237 328.295 444.8 327.604 447.423 327.457L447.489 328.312C444.981 328.452 442.53 329.112 440.292 330.25C438.053 331.388 436.077 332.978 434.488 334.921C424.77 346.595 427.139 369.752 427.165 369.984L426.31 370.076Z" fill="#3F3D56"/>
<path d="M447.867 271.445C451.592 271.445 454.613 268.43 454.613 264.71C454.613 260.991 451.592 257.975 447.867 257.975C444.141 257.975 441.121 260.991 441.121 264.71C441.121 268.43 444.141 271.445 447.867 271.445Z" fill="#3F3D56"/>
<path d="M426.721 304.759C426.696 304.541 424.349 282.833 433.855 271.343C435.564 269.259 437.69 267.554 440.097 266.338C442.504 265.122 445.14 264.422 447.834 264.282L447.9 265.138C445.321 265.27 442.799 265.939 440.494 267.102C438.19 268.265 436.154 269.895 434.518 271.89C425.242 283.102 427.551 304.447 427.575 304.662L426.721 304.759Z" fill="#3F3D56"/>
<path d="M382.474 274.693H381.614V371.658H382.474V274.693Z" fill="#3F3D56"/>
<path d="M382.044 281.427C385.77 281.427 388.79 278.412 388.79 274.693C388.79 270.973 385.77 267.958 382.044 267.958C378.318 267.958 375.298 270.973 375.298 274.693C375.298 278.412 378.318 281.427 382.044 281.427Z" fill="#3F3D56"/>
<path d="M382.044 302.12C382.044 302.12 381.08 281.427 361.325 283.833L382.044 302.12Z" fill="#3F3D56"/>
<path d="M382.471 369.853L381.617 369.76C381.642 369.531 383.996 346.732 374.367 335.153C372.769 333.201 370.781 331.602 368.529 330.46C366.278 329.317 363.813 328.656 361.292 328.517L361.358 327.662C363.995 327.807 366.573 328.5 368.927 329.696C371.281 330.892 373.359 332.564 375.03 334.606C384.891 346.467 382.497 369.62 382.471 369.853Z" fill="#3F3D56"/>
<path d="M361.325 334.824C365.051 334.824 368.071 331.809 368.071 328.09C368.071 324.37 365.051 321.355 361.325 321.355C357.6 321.355 354.58 324.37 354.58 328.09C354.58 331.809 357.6 334.824 361.325 334.824Z" fill="#3F3D56"/>
<path d="M446.876 371.135H307.626V371.993H446.876V371.135Z" fill="#3F3D56"/>
<path d="M546.003 430.597H221.379V51.9999H546.003V430.597ZM222.823 429.155H544.559V53.4419H222.823V429.155Z" fill="#3F3D56"/>
<path d="M545.281 84.5635H222.101V86.0054H545.281V84.5635Z" fill="#3F3D56"/>
<path d="M530.552 74.7794C533.662 74.7794 536.183 72.262 536.183 69.1566C536.183 66.0513 533.662 63.5339 530.552 63.5339C527.441 63.5339 524.92 66.0513 524.92 69.1566C524.92 72.262 527.441 74.7794 530.552 74.7794Z" fill="white"/>
<path d="M530.551 75.14C529.366 75.14 528.207 74.7891 527.222 74.1316C526.236 73.4742 525.468 72.5397 525.015 71.4464C524.561 70.3531 524.442 69.1501 524.674 67.9894C524.905 66.8288 525.476 65.7627 526.314 64.9259C527.152 64.0891 528.22 63.5192 529.382 63.2884C530.545 63.0575 531.75 63.176 532.845 63.6289C533.94 64.0817 534.876 64.8486 535.534 65.8326C536.193 66.8165 536.544 67.9733 536.544 69.1567C536.543 70.7431 535.911 72.2639 534.787 73.3857C533.664 74.5074 532.14 75.1383 530.551 75.14ZM530.551 63.8944C529.509 63.8944 528.49 64.203 527.623 64.7813C526.756 65.3595 526.081 66.1813 525.682 67.1429C525.283 68.1045 525.178 69.1626 525.382 70.1834C525.585 71.2041 526.087 72.1418 526.824 72.8778C527.561 73.6137 528.501 74.1149 529.523 74.3179C530.545 74.521 531.605 74.4168 532.568 74.0185C533.531 73.6202 534.355 72.9457 534.934 72.0803C535.513 71.2149 535.822 70.1975 535.822 69.1567C535.821 67.7615 535.265 66.4239 534.277 65.4373C533.289 64.4507 531.949 63.8958 530.551 63.8944Z" fill="#14213D"/>
<path d="M528.273 66.3713L527.762 66.8811L532.83 71.9417L533.341 71.432L528.273 66.3713Z" fill="#14213D"/>
<path d="M532.831 66.3715L527.762 71.4319L528.273 71.9416L533.341 66.8812L532.831 66.3715Z" fill="#14213D"/>
<path d="M530.552 74.7794C533.662 74.7794 536.183 72.262 536.183 69.1566C536.183 66.0513 533.662 63.5339 530.552 63.5339C527.441 63.5339 524.92 66.0513 524.92 69.1566C524.92 72.262 527.441 74.7794 530.552 74.7794Z" stroke="#3F3D56" stroke-width="2" stroke-miterlimit="10"/>
<path d="M530.551 75.14C529.366 75.14 528.207 74.7891 527.222 74.1316C526.236 73.4742 525.468 72.5397 525.015 71.4464C524.561 70.3531 524.442 69.1501 524.674 67.9894C524.905 66.8288 525.476 65.7627 526.314 64.9259C527.152 64.0891 528.22 63.5192 529.382 63.2884C530.545 63.0575 531.75 63.176 532.845 63.6289C533.94 64.0817 534.876 64.8486 535.534 65.8326C536.193 66.8165 536.544 67.9733 536.544 69.1567C536.543 70.7431 535.911 72.2639 534.787 73.3857C533.664 74.5074 532.14 75.1383 530.551 75.14V75.14ZM530.551 63.8944C529.509 63.8944 528.49 64.203 527.623 64.7813C526.756 65.3595 526.081 66.1813 525.682 67.1429C525.283 68.1045 525.178 69.1626 525.382 70.1834C525.585 71.2041 526.087 72.1418 526.824 72.8778C527.561 73.6137 528.501 74.1149 529.523 74.3179C530.545 74.521 531.605 74.4168 532.568 74.0185C533.531 73.6202 534.355 72.9457 534.934 72.0803C535.513 71.2149 535.822 70.1975 535.822 69.1567C535.821 67.7615 535.265 66.4239 534.277 65.4373C533.289 64.4507 531.949 63.8958 530.551 63.8944V63.8944Z" stroke="#3F3D56" stroke-width="2" stroke-miterlimit="10"/>
<path d="M528.017 66.6264L533.086 71.6869" stroke="#3F3D56" stroke-width="2" stroke-miterlimit="10"/>
<path d="M528.273 66.3713L527.762 66.8811L532.83 71.9417L533.341 71.432L528.273 66.3713Z" stroke="#3F3D56" stroke-width="2" stroke-miterlimit="10"/>
<path d="M533.086 66.6264L528.017 71.6869" stroke="#3F3D56" stroke-width="2" stroke-miterlimit="10"/>
<path d="M532.831 66.3715L527.762 71.4319L528.273 71.9416L533.341 66.8812L532.831 66.3715Z" stroke="#3F3D56" stroke-width="2" stroke-miterlimit="10"/>
<path d="M295.748 65.6965H245.495V72.6168H295.748V65.6965Z" fill="#3F3D56"/>
<path d="M383.258 65.6965H333.005V72.6168H383.258V65.6965Z" fill="#3F3D56"/>
<path d="M470.768 65.6965H420.514V72.6168H470.768V65.6965Z" fill="#3F3D56"/>
<path d="M470.768 135.764H295.748V156.525H470.768V135.764Z" fill="#3F3D56"/>
<path d="M371.128 414.305C373.52 414.305 375.46 412.369 375.46 409.98C375.46 407.592 373.52 405.655 371.128 405.655C368.735 405.655 366.795 407.592 366.795 409.98C366.795 412.369 368.735 414.305 371.128 414.305Z" fill="#3F3D56"/>
<path d="M383.258 414.305C385.65 414.305 387.59 412.369 387.59 409.98C387.59 407.592 385.65 405.655 383.258 405.655C380.865 405.655 378.926 407.592 378.926 409.98C378.926 412.369 380.865 414.305 383.258 414.305Z" fill="#3F3D56"/>
<path d="M395.388 414.305C397.78 414.305 399.72 412.369 399.72 409.98C399.72 407.592 397.78 405.655 395.388 405.655C392.995 405.655 391.056 407.592 391.056 409.98C391.056 412.369 392.995 414.305 395.388 414.305Z" fill="#3F3D56"/>
<path d="M229.929 182.56H178.573V238.167H229.929V182.56Z" fill="#F2F2F2"/>
<path d="M236.991 234.86H184.19V177.811H236.991V234.86ZM185.635 233.418H235.547V179.253H185.635V233.418Z" fill="#3F3D56"/>
<path d="M200.826 210.307C202.823 210.307 204.443 208.69 204.443 206.696C204.443 204.702 202.823 203.085 200.826 203.085C198.828 203.085 197.209 204.702 197.209 206.696C197.209 208.69 198.828 210.307 200.826 210.307Z" fill="#FCA311"/>
<path d="M210.953 210.307C212.95 210.307 214.569 208.69 214.569 206.696C214.569 204.702 212.95 203.085 210.953 203.085C208.955 203.085 207.336 204.702 207.336 206.696C207.336 208.69 208.955 210.307 210.953 210.307Z" fill="#FCA311"/>
<path d="M221.079 210.307C223.077 210.307 224.696 208.69 224.696 206.696C224.696 204.702 223.077 203.085 221.079 203.085C219.082 203.085 217.463 204.702 217.463 206.696C217.463 208.69 219.082 210.307 221.079 210.307Z" fill="#FCA311"/>
<path d="M123.617 439.38C123.617 439.38 149.998 453.753 148.921 458.224C148.337 460.649 134.153 457.026 120.808 452.406C109.555 448.511 127.052 450.235 125.652 447.952C122.591 442.961 123.617 439.38 123.617 439.38Z" fill="#2F2E41"/>
<path d="M187.034 435.176C187.034 435.176 216.049 442.993 216.049 447.591C216.049 452.19 166.308 447.591 162.163 443.453C158.018 439.315 187.034 435.176 187.034 435.176Z" fill="#2F2E41"/>
<path d="M137.293 232.856L149.728 253.548C149.728 253.548 170.453 307.347 174.598 340.454C178.743 373.561 203.614 431.498 195.324 439.775C187.034 448.051 145.583 448.511 145.583 439.775V270.101L137.293 232.856Z" fill="#2F2E41"/>
<path opacity="0.1" d="M137.293 232.856L149.728 253.548C149.728 253.548 170.453 307.347 174.598 340.454C178.743 373.561 203.614 431.498 195.324 439.775C187.034 448.051 145.583 448.511 145.583 439.775V270.101L137.293 232.856Z" fill="#14213D"/>
<path d="M104.132 216.303V232.856C104.132 236.994 129.003 236.994 129.003 236.994V220.441L104.132 216.303Z" fill="#CFA781"/>
<path d="M116.568 224.579L104.363 228.488C104.363 228.488 91.6972 252.628 95.8423 265.503C99.9873 278.378 112.423 348.73 112.423 348.73V394.253C112.423 394.253 87.5521 435.636 99.9873 443.913C112.423 452.19 137.293 460.926 141.438 456.328C145.583 451.73 149.728 278.378 149.728 278.378V253.548L145.583 220.441L116.568 224.579Z" fill="#2F2E41"/>
<path d="M138.117 135.852C151.524 135.852 162.393 125.001 162.393 111.615C162.393 98.2286 151.524 87.377 138.117 87.377C124.709 87.377 113.84 98.2286 113.84 111.615C113.84 125.001 124.709 135.852 138.117 135.852Z" fill="#2F2E41"/>
<path d="M111.817 103.939C125.224 103.939 136.094 93.0879 136.094 79.7018C136.094 66.3157 125.224 55.4641 111.817 55.4641C98.4089 55.4641 87.5398 66.3157 87.5398 79.7018C87.5398 93.0879 98.4089 103.939 111.817 103.939Z" fill="#2F2E41"/>
<path d="M90.8766 99.7721C94.0187 102.039 97.6591 103.523 101.493 104.097C105.327 104.672 109.243 104.322 112.914 103.076C116.584 101.83 119.903 99.7241 122.591 96.9352C125.28 94.1462 127.26 90.7551 128.366 87.0453C127.948 90.3698 126.843 93.5716 125.123 96.4484C123.402 99.3252 121.103 101.815 118.37 103.759C115.637 105.704 112.53 107.062 109.244 107.748C105.959 108.433 102.568 108.431 99.2833 107.742C95.999 107.052 92.8935 105.691 90.1629 103.743C87.4322 101.795 85.1358 99.3025 83.4186 96.4236C81.7014 93.5448 80.6006 90.3418 80.1859 87.0168C79.7711 83.6918 80.0513 80.3171 81.0088 77.1057C80.465 81.4202 81.0942 85.8013 82.8304 89.7894C84.5666 93.7776 87.3459 97.2257 90.8766 99.7721Z" fill="#2F2E41"/>
<path d="M146.614 121.31C155.329 121.31 162.394 115.794 162.394 108.989C162.394 102.184 155.329 96.6682 146.614 96.6682C137.899 96.6682 130.834 102.184 130.834 108.989C130.834 115.794 137.899 121.31 146.614 121.31Z" fill="#2F2E41"/>
<path d="M141.668 137.214C152.987 137.214 162.163 128.053 162.163 116.752C162.163 105.451 152.987 96.2899 141.668 96.2899C130.349 96.2899 121.173 105.451 121.173 116.752C121.173 128.053 130.349 137.214 141.668 137.214Z" fill="#CFA781"/>
<path d="M129.003 129.397C129.003 129.397 133.148 137.674 124.858 141.812C116.568 145.95 141.438 162.504 141.438 162.504L149.728 133.535L129.003 129.397Z" fill="#CFA781"/>
<path d="M133.148 145.95C133.148 145.95 124.858 133.535 120.713 141.812C116.568 150.089 95.8423 174.919 95.8423 199.749C95.8423 224.579 95.8423 224.579 99.9873 224.579C104.132 224.579 116.568 220.441 120.713 224.579C124.858 228.718 141.438 224.579 141.438 224.579L145.583 187.334C145.583 187.334 149.728 166.642 145.583 162.504C141.438 158.365 133.148 145.95 133.148 145.95Z" fill="#FCA311"/>
<path d="M112.423 162.504C112.423 162.504 99.9873 224.579 112.423 228.718C124.858 232.856 162.163 248.95 162.163 244.811C162.163 240.673 166.308 236.535 166.308 236.535C166.308 236.535 170.453 240.673 170.453 236.535V228.718L129.003 212.164V170.781C129.003 170.781 137.293 150.089 129.003 150.089C120.713 150.089 112.423 162.504 112.423 162.504Z" fill="#FCA311"/>
<path d="M166.308 228.718C166.308 228.718 194.863 228.718 195.324 236.994C195.784 245.271 166.308 236.535 166.308 236.535V228.718Z" fill="#CFA781"/>
<path d="M142.249 113.055C152.074 109.965 158.646 103.042 156.926 97.5918C155.206 92.1419 145.847 90.2291 136.021 93.3193C126.196 96.4096 119.625 103.333 121.344 108.783C123.064 114.232 132.423 116.145 142.249 113.055Z" fill="#2F2E41"/>
<defs>
<linearGradient id="paint0_linear" x1="805.5" y1="398" x2="165.575" y2="241.692" gradientUnits="userSpaceOnUse">
<stop offset="0.0625" stop-color="#E4C795"/>
<stop offset="0.760417" stop-color="#FCA311"/>
</linearGradient>
</defs>
</svg>
