<svg width="675" height="551" viewBox="0 0 675 551" fill="none" xmlns="http://www.w3.org/2000/svg">
<path fill-rule="evenodd" clip-rule="evenodd" d="M332.5 9.5C458.088 -9.76889 469.025 63.3008 512.5 102.5C555.975 141.699 685.746 262.143 673.349 347.705C661.544 429.183 541.072 413.921 471 457.078C420.649 488.09 362.279 525.598 303.251 522.205C248.246 519.043 200.23 489.458 155.641 457.078C99.1278 416.04 4.41149 367.784 0.999991 298C-2.44402 227.55 92.1433 197.862 140.458 146.5C191.419 92.3244 259.004 20.7765 332.5 9.5Z" fill="url(#paint0_linear)" fill-opacity="0.6"/>
<path fill-rule="evenodd" clip-rule="evenodd" d="M312.319 0.191284C368.005 -3.41567 418.771 44.8669 467.819 71.4823C524.245 102.102 629.338 103.311 648.819 164.482C668.292 225.633 601.231 294.312 575.404 353.063C552.447 405.286 512.38 469.365 467.819 504.982C421.873 541.706 370.519 556.489 312.319 547.982C256.494 539.823 188.861 518.013 139.5 490.691C78.653 457.012 31.9043 440.284 5.93087 375.77C-27.6814 266.482 90.9956 257.468 125.819 198.982C152.172 154.722 154.275 77.3582 194.508 45.1913C236.519 11.6034 258.644 3.6679 312.319 0.191284Z" fill="url(#paint1_linear)" fill-opacity="0.35"/>
<path d="M547.686 278.833H263.496V424.159H547.686V278.833Z" fill="#1CA7EC"/>
<path d="M449.875 267.456C464.399 267.456 476.172 255.702 476.172 241.202C476.172 226.702 464.399 214.948 449.875 214.948C435.352 214.948 423.579 226.702 423.579 241.202C423.579 255.702 435.352 267.456 449.875 267.456Z" fill="#FF6584"/>
<path d="M350.142 365.923H349.282V413.548H350.142V365.923Z" fill="#3F3D56"/>
<path d="M349.712 372.658C353.437 372.658 356.457 369.643 356.457 365.923C356.457 362.204 353.437 359.188 349.712 359.188C345.986 359.188 342.966 362.204 342.966 365.923C342.966 369.643 345.986 372.658 349.712 372.658Z" fill="#3F3D56"/>
<path d="M349.712 395.275C349.712 395.275 348.748 374.582 328.993 376.987Z" fill="#3F3D56"/>
<path d="M445.164 255.029H444.305V413.882H445.164V255.029Z" fill="#3F3D56"/>
<path d="M444.734 261.689C448.46 261.689 451.48 258.673 451.48 254.954C451.48 251.234 448.46 248.219 444.734 248.219C441.009 248.219 437.989 251.234 437.989 254.954C437.989 258.673 441.009 261.689 444.734 261.689Z" fill="#3F3D56"/>
<path d="M424.016 376.619C427.741 376.619 430.761 373.604 430.761 369.884C430.761 366.165 427.741 363.15 424.016 363.15C420.29 363.15 417.27 366.165 417.27 369.884C417.27 373.604 420.29 376.619 424.016 376.619Z" fill="#3F3D56"/>
<path d="M444.734 289.355C444.734 289.355 443.771 268.663 424.016 271.068Z" fill="#3F3D56"/>
<path d="M444.734 348.017C444.734 348.017 443.771 327.324 424.016 329.73Z" fill="#3F3D56"/>
<path d="M445.162 412.076L444.307 411.984C444.332 411.752 446.699 388.589 436.983 376.919C435.394 374.977 433.418 373.387 431.179 372.25C428.941 371.112 426.49 370.452 423.983 370.312L424.049 369.457C426.672 369.604 429.235 370.295 431.576 371.485C433.917 372.676 435.984 374.34 437.645 376.372C447.593 388.323 445.187 411.84 445.162 412.076Z" fill="#3F3D56"/>
<path d="M465.456 376.619C469.182 376.619 472.202 373.604 472.202 369.884C472.202 366.165 469.182 363.15 465.456 363.15C461.731 363.15 458.711 366.165 458.711 369.884C458.711 373.604 461.731 376.619 465.456 376.619Z" fill="#3F3D56"/>
<path d="M444.31 412.076C444.285 411.84 441.879 388.323 451.827 376.372C453.488 374.34 455.555 372.676 457.896 371.485C460.237 370.295 462.8 369.604 465.423 369.457L465.489 370.312C462.982 370.452 460.53 371.112 458.292 372.25C456.054 373.388 454.077 374.978 452.488 376.921C442.77 388.595 445.14 411.752 445.165 411.984L444.31 412.076Z" fill="#3F3D56"/>
<path d="M465.867 313.445C469.593 313.445 472.613 310.43 472.613 306.71C472.613 302.991 469.593 299.975 465.867 299.975C462.142 299.975 459.121 302.991 459.121 306.71C459.121 310.43 462.142 313.445 465.867 313.445Z" fill="#3F3D56"/>
<path d="M444.722 346.759C444.696 346.541 442.349 324.833 451.855 313.343C453.564 311.259 455.69 309.554 458.097 308.338C460.504 307.122 463.14 306.422 465.834 306.282L465.9 307.138C463.322 307.27 460.799 307.939 458.495 309.102C456.19 310.265 454.154 311.895 452.518 313.89C443.242 325.102 445.551 346.447 445.575 346.662L444.722 346.759Z" fill="#3F3D56"/>
<path d="M400.474 316.693H399.615V413.658H400.474V316.693Z" fill="#3F3D56"/>
<path d="M400.044 323.427C403.77 323.427 406.79 320.412 406.79 316.693C406.79 312.973 403.77 309.958 400.044 309.958C396.319 309.958 393.299 312.973 393.299 316.693C393.299 320.412 396.319 323.427 400.044 323.427Z" fill="#3F3D56"/>
<path d="M400.044 344.12C400.044 344.12 399.081 323.427 379.325 325.833Z" fill="#3F3D56"/>
<path d="M400.472 411.853L399.617 411.76C399.642 411.531 401.997 388.732 392.367 377.153C390.769 375.201 388.781 373.602 386.53 372.46C384.279 371.318 381.814 370.656 379.292 370.517L379.358 369.662C381.995 369.807 384.573 370.5 386.927 371.696C389.281 372.892 391.359 374.564 393.03 376.606C402.891 388.467 400.497 411.62 400.472 411.853Z" fill="#3F3D56"/>
<path d="M379.325 376.824C383.051 376.824 386.071 373.809 386.071 370.09C386.071 366.37 383.051 363.355 379.325 363.355C375.6 363.355 372.58 366.37 372.58 370.09C372.58 373.809 375.6 376.824 379.325 376.824Z" fill="#3F3D56"/>
<path d="M464.877 413.135H325.626V413.993H464.877V413.135Z" fill="#3F3D56"/>
<path d="M564.004 472.597H239.379V94H564.004V472.597ZM240.823 471.155H562.559V95.4419H240.823V471.155Z" fill="#3F3D56"/>
<path d="M563.281 126.564H240.101V128.005H563.281V126.564Z" fill="#3F3D56"/>
<path d="M548.552 116.779C551.662 116.779 554.184 114.262 554.184 111.157C554.184 108.051 551.662 105.534 548.552 105.534C545.441 105.534 542.92 108.051 542.92 111.157C542.92 114.262 545.441 116.779 548.552 116.779Z" fill="white"/>
<path d="M548.551 117.14C547.366 117.14 546.207 116.789 545.222 116.132C544.236 115.474 543.468 114.54 543.015 113.446C542.561 112.353 542.442 111.15 542.674 109.989C542.905 108.829 543.476 107.763 544.314 106.926C545.152 106.089 546.22 105.519 547.382 105.288C548.545 105.058 549.75 105.176 550.845 105.629C551.94 106.082 552.876 106.849 553.534 107.833C554.193 108.817 554.544 109.973 554.544 111.157C554.543 112.743 553.911 114.264 552.787 115.386C551.664 116.507 550.14 117.138 548.551 117.14V117.14ZM548.551 105.894C547.509 105.894 546.49 106.203 545.623 106.781C544.756 107.36 544.081 108.181 543.682 109.143C543.283 110.105 543.179 111.163 543.382 112.183C543.585 113.204 544.087 114.142 544.824 114.878C545.562 115.614 546.501 116.115 547.523 116.318C548.546 116.521 549.605 116.417 550.568 116.018C551.532 115.62 552.355 114.946 552.934 114.08C553.513 113.215 553.822 112.198 553.822 111.157C553.821 109.762 553.265 108.424 552.277 107.437C551.289 106.451 549.949 105.896 548.551 105.894V105.894Z" fill="black"/>
<path d="M546.273 108.371L545.762 108.881L550.831 113.942L551.341 113.432L546.273 108.371Z" fill="black"/>
<path d="M550.831 108.371L545.762 113.432L546.273 113.942L551.341 108.881L550.831 108.371Z" fill="black"/>
<path d="M548.552 116.779C551.662 116.779 554.184 114.262 554.184 111.157C554.184 108.051 551.662 105.534 548.552 105.534C545.441 105.534 542.92 108.051 542.92 111.157C542.92 114.262 545.441 116.779 548.552 116.779Z" stroke="#3F3D56" stroke-width="2" stroke-miterlimit="10"/>
<path d="M548.551 117.14C547.366 117.14 546.207 116.789 545.222 116.132C544.236 115.474 543.468 114.54 543.015 113.446C542.561 112.353 542.442 111.15 542.674 109.989C542.905 108.829 543.476 107.763 544.314 106.926C545.152 106.089 546.22 105.519 547.382 105.288C548.545 105.058 549.75 105.176 550.845 105.629C551.94 106.082 552.876 106.849 553.534 107.833C554.193 108.817 554.544 109.973 554.544 111.157C554.543 112.743 553.911 114.264 552.787 115.386C551.664 116.507 550.14 117.138 548.551 117.14V117.14ZM548.551 105.894C547.509 105.894 546.49 106.203 545.623 106.781C544.756 107.36 544.081 108.181 543.682 109.143C543.283 110.105 543.179 111.163 543.382 112.183C543.585 113.204 544.087 114.142 544.824 114.878C545.562 115.614 546.501 116.115 547.523 116.318C548.546 116.521 549.605 116.417 550.568 116.018C551.532 115.62 552.355 114.946 552.934 114.08C553.513 113.215 553.822 112.198 553.822 111.157C553.821 109.762 553.265 108.424 552.277 107.437C551.289 106.451 549.949 105.896 548.551 105.894V105.894Z" stroke="#3F3D56" stroke-width="2" stroke-miterlimit="10"/>
<path d="M546.017 108.626L551.086 113.687" stroke="#3F3D56" stroke-width="2" stroke-miterlimit="10"/>
<path d="M546.273 108.371L545.762 108.881L550.831 113.942L551.341 113.432L546.273 108.371Z" stroke="#3F3D56" stroke-width="2" stroke-miterlimit="10"/>
<path d="M551.086 108.626L546.017 113.687" stroke="#3F3D56" stroke-width="2" stroke-miterlimit="10"/>
<path d="M550.831 108.371L545.762 113.432L546.273 113.942L551.341 108.881L550.831 108.371Z" stroke="#3F3D56" stroke-width="2" stroke-miterlimit="10"/>
<path d="M313.748 107.697H263.495V114.617H313.748V107.697Z" fill="#3F3D56"/>
<path d="M401.258 107.697H351.005V114.617H401.258V107.697Z" fill="#3F3D56"/>
<path d="M488.768 107.697H438.515V114.617H488.768V107.697Z" fill="#3F3D56"/>
<path d="M488.768 177.764H313.748V198.525H488.768V177.764Z" fill="#3F3D56"/>
<path d="M389.128 456.306C391.52 456.306 393.46 454.369 393.46 451.98C393.46 449.592 391.52 447.655 389.128 447.655C386.735 447.655 384.796 449.592 384.796 451.98C384.796 454.369 386.735 456.306 389.128 456.306Z" fill="#3F3D56"/>
<path d="M401.258 456.306C403.65 456.306 405.59 454.369 405.59 451.98C405.59 449.592 403.65 447.655 401.258 447.655C398.865 447.655 396.926 449.592 396.926 451.98C396.926 454.369 398.865 456.306 401.258 456.306Z" fill="#3F3D56"/>
<path d="M413.388 456.306C415.781 456.306 417.72 454.369 417.72 451.98C417.72 449.592 415.781 447.655 413.388 447.655C410.995 447.655 409.056 449.592 409.056 451.98C409.056 454.369 410.995 456.306 413.388 456.306Z" fill="#3F3D56"/>
<path d="M247.929 224.56H196.573V280.167H247.929V224.56Z" fill="#F2F2F2"/>
<path d="M254.992 276.86H202.191V219.811H254.992V276.86ZM203.635 275.418H253.547V221.253H203.635V275.418Z" fill="#3F3D56"/>
<path d="M218.826 252.307C220.823 252.307 222.443 250.69 222.443 248.696C222.443 246.702 220.823 245.085 218.826 245.085C216.829 245.085 215.209 246.702 215.209 248.696C215.209 250.69 216.829 252.307 218.826 252.307Z" fill="#1CA7EC"/>
<path d="M228.953 252.307C230.95 252.307 232.569 250.69 232.569 248.696C232.569 246.702 230.95 245.085 228.953 245.085C226.955 245.085 225.336 246.702 225.336 248.696C225.336 250.69 226.955 252.307 228.953 252.307Z" fill="#1CA7EC"/>
<path d="M239.079 252.307C241.077 252.307 242.696 250.69 242.696 248.696C242.696 246.702 241.077 245.085 239.079 245.085C237.082 245.085 235.463 246.702 235.463 248.696C235.463 250.69 237.082 252.307 239.079 252.307Z" fill="#1CA7EC"/>
<path d="M141.617 481.38C141.617 481.38 167.998 495.753 166.921 500.224C166.337 502.649 152.153 499.026 138.808 494.406C127.555 490.511 145.053 492.235 143.652 489.952C140.591 484.961 141.617 481.38 141.617 481.38Z" fill="#2F2E41"/>
<path d="M205.034 477.176C205.034 477.176 234.049 484.993 234.049 489.591C234.049 494.19 184.308 489.591 180.163 485.453C176.018 481.315 205.034 477.176 205.034 477.176Z" fill="#2F2E41"/>
<path d="M155.293 274.856L167.728 295.548C167.728 295.548 188.454 349.347 192.599 382.454C196.744 415.561 221.614 473.498 213.324 481.775C205.034 490.051 163.583 490.511 163.583 481.775V312.101L155.293 274.856Z" fill="#2F2E41"/>
<path opacity="0.1" d="M155.293 274.856L167.728 295.548C167.728 295.548 188.454 349.347 192.599 382.454C196.744 415.561 221.614 473.498 213.324 481.775C205.034 490.051 163.583 490.511 163.583 481.775V312.101L155.293 274.856Z" fill="black"/>
<path d="M122.133 258.303V274.856C122.133 278.995 147.003 278.995 147.003 278.995V262.441L122.133 258.303Z" fill="#A0616A"/>
<path d="M134.568 266.579L122.363 270.488C122.363 270.488 109.697 294.628 113.842 307.503C117.987 320.378 130.423 390.73 130.423 390.73V436.253C130.423 436.253 105.552 477.636 117.987 485.913C130.423 494.19 155.293 502.926 159.438 498.328C163.583 493.73 167.728 320.378 167.728 320.378V295.548L163.583 262.441L134.568 266.579Z" fill="#2F2E41"/>
<path d="M156.117 177.852C169.525 177.852 180.394 167.001 180.394 153.615C180.394 140.229 169.525 129.377 156.117 129.377C142.709 129.377 131.84 140.229 131.84 153.615C131.84 167.001 142.709 177.852 156.117 177.852Z" fill="#2F2E41"/>
<path d="M129.817 145.939C143.225 145.939 154.094 135.088 154.094 121.702C154.094 108.316 143.225 97.4641 129.817 97.4641C116.409 97.4641 105.54 108.316 105.54 121.702C105.54 135.088 116.409 145.939 129.817 145.939Z" fill="#2F2E41"/>
<path d="M108.877 141.772C112.019 144.04 115.659 145.523 119.493 146.097C123.327 146.672 127.243 146.322 130.914 145.076C134.585 143.83 137.903 141.724 140.591 138.935C143.28 136.146 145.26 132.755 146.367 129.045C145.948 132.37 144.843 135.572 143.123 138.448C141.402 141.325 139.103 143.815 136.37 145.759C133.637 147.704 130.53 149.062 127.245 149.748C123.96 150.433 120.568 150.431 117.283 149.742C113.999 149.052 110.894 147.691 108.163 145.743C105.432 143.795 103.136 141.303 101.419 138.424C99.7016 135.545 98.6008 132.342 98.1861 129.017C97.7713 125.692 98.0515 122.317 99.009 119.106C98.4652 123.42 99.0944 127.801 100.831 131.789C102.567 135.778 105.346 139.226 108.877 141.772V141.772Z" fill="#2F2E41"/>
<path d="M164.614 163.31C173.329 163.31 180.394 157.794 180.394 150.989C180.394 144.184 173.329 138.668 164.614 138.668C155.899 138.668 148.834 144.184 148.834 150.989C148.834 157.794 155.899 163.31 164.614 163.31Z" fill="#2F2E41"/>
<path d="M159.668 179.214C170.987 179.214 180.163 170.053 180.163 158.752C180.163 147.451 170.987 138.29 159.668 138.29C148.349 138.29 139.173 147.451 139.173 158.752C139.173 170.053 148.349 179.214 159.668 179.214Z" fill="#A0616A"/>
<path d="M147.003 171.397C147.003 171.397 151.148 179.674 142.858 183.812C134.568 187.95 159.438 204.504 159.438 204.504L167.728 175.535L147.003 171.397Z" fill="#A0616A"/>
<path d="M151.148 187.95C151.148 187.95 142.858 175.535 138.713 183.812C134.568 192.089 113.842 216.919 113.842 241.749C113.842 266.579 113.842 266.579 117.987 266.579C122.133 266.579 134.568 262.441 138.713 266.579C142.858 270.718 159.438 266.579 159.438 266.579L163.583 229.334C163.583 229.334 167.728 208.642 163.583 204.504C159.438 200.365 151.148 187.95 151.148 187.95Z" fill="#1CA7EC"/>
<path d="M130.423 204.504C130.423 204.504 117.987 266.579 130.423 270.718C142.858 274.856 180.163 290.95 180.163 286.811C180.163 282.673 184.309 278.535 184.309 278.535C184.309 278.535 188.454 282.673 188.454 278.535V270.718L147.003 254.164V212.781C147.003 212.781 155.293 192.089 147.003 192.089C138.713 192.089 130.423 204.504 130.423 204.504Z" fill="#1CA7EC"/>
<path d="M184.308 270.718C184.308 270.718 212.863 270.718 213.324 278.995C213.784 287.271 184.308 278.535 184.308 278.535V270.718Z" fill="#A0616A"/>
<path d="M160.249 155.055C170.075 151.965 176.646 145.042 174.926 139.592C173.207 134.142 163.847 132.229 154.022 135.319C144.196 138.41 137.625 145.333 139.344 150.783C141.064 156.233 150.423 158.145 160.249 155.055Z" fill="#2F2E41"/>
<defs>
<linearGradient id="paint0_linear" x1="676.5" y1="453" x2="-5.67255" y2="94.3282" gradientUnits="userSpaceOnUse">
<stop stop-color="#1CA7EC"/>
<stop offset="1" stop-color="#8DCFF0"/>
</linearGradient>
<linearGradient id="paint1_linear" x1="-81.1814" y1="56.4824" x2="592.319" y2="510.482" gradientUnits="userSpaceOnUse">
<stop stop-color="#1CA7EC"/>
<stop offset="1" stop-color="#8DCFF0"/>
</linearGradient>
</defs>
</svg>
