<svg width="662" height="603" viewBox="0 0 662 603" fill="none" xmlns="http://www.w3.org/2000/svg">
<path fill-rule="evenodd" clip-rule="evenodd" d="M298.902 38.926C424.49 19.6571 454.746 100.397 498.221 139.596C541.696 178.795 672.897 278.938 660.5 364.5C648.695 445.978 534.578 464.22 464.506 507.378C414.155 538.389 357.93 551.882 298.902 548.489C243.897 545.328 195.881 521.753 151.292 489.374C94.7788 448.335 17.5229 411.465 14.1114 341.68C10.6674 271.231 87.7943 230.158 136.109 178.795C187.07 124.62 225.406 50.2025 298.902 38.926Z" fill="url(#paint0_linear)" fill-opacity="0.75"/>
<path fill-rule="evenodd" clip-rule="evenodd" d="M312 0.499989C367.687 -3.10696 433.446 78.9979 482.494 105.613C538.92 136.233 630.52 151.329 650 212.5C669.474 273.651 602.412 342.33 576.586 401.08C553.629 453.304 533.608 507.624 489.046 543.241C443.1 579.964 384.993 609.241 326.793 600.734C270.968 592.575 245.05 527.687 195.689 500.366C134.842 466.686 33.0856 488.302 7.1122 423.788C-26.5 314.5 71.6769 288.486 106.5 230C132.853 185.74 143.767 105.167 184 73C226.011 39.4121 258.325 3.9766 312 0.499989Z" fill="url(#paint1_linear)" fill-opacity="0.35"/>
<path d="M552.686 300.833H268.496V446.159H552.686V300.833Z" fill="#1CA7EC"/>
<path d="M454.875 289.456C469.399 289.456 481.172 277.702 481.172 263.202C481.172 248.702 469.399 236.948 454.875 236.948C440.352 236.948 428.579 248.702 428.579 263.202C428.579 277.702 440.352 289.456 454.875 289.456Z" fill="#FF6584"/>
<path d="M355.142 387.923H354.282V435.548H355.142V387.923Z" fill="#3F3D56"/>
<path d="M354.712 394.658C358.437 394.658 361.457 391.643 361.457 387.923C361.457 384.204 358.437 381.188 354.712 381.188C350.986 381.188 347.966 384.204 347.966 387.923C347.966 391.643 350.986 394.658 354.712 394.658Z" fill="#3F3D56"/>
<path d="M354.712 417.275C354.712 417.275 353.748 396.582 333.993 398.987Z" fill="#3F3D56"/>
<path d="M450.164 277.029H449.305V435.882H450.164V277.029Z" fill="#3F3D56"/>
<path d="M449.734 283.689C453.46 283.689 456.48 280.673 456.48 276.954C456.48 273.234 453.46 270.219 449.734 270.219C446.009 270.219 442.989 273.234 442.989 276.954C442.989 280.673 446.009 283.689 449.734 283.689Z" fill="#3F3D56"/>
<path d="M429.016 398.619C432.741 398.619 435.761 395.604 435.761 391.884C435.761 388.165 432.741 385.15 429.016 385.15C425.29 385.15 422.27 388.165 422.27 391.884C422.27 395.604 425.29 398.619 429.016 398.619Z" fill="#3F3D56"/>
<path d="M449.734 311.355C449.734 311.355 448.771 290.663 429.016 293.068Z" fill="#3F3D56"/>
<path d="M449.734 370.017C449.734 370.017 448.771 349.324 429.016 351.73Z" fill="#3F3D56"/>
<path d="M450.162 434.076L449.307 433.984C449.332 433.752 451.699 410.589 441.983 398.919C440.394 396.977 438.418 395.387 436.179 394.25C433.941 393.112 431.49 392.452 428.983 392.312L429.049 391.457C431.672 391.604 434.235 392.295 436.576 393.485C438.917 394.676 440.984 396.34 442.645 398.372C452.593 410.323 450.187 433.84 450.162 434.076Z" fill="#3F3D56"/>
<path d="M470.456 398.619C474.182 398.619 477.202 395.604 477.202 391.884C477.202 388.165 474.182 385.15 470.456 385.15C466.731 385.15 463.711 388.165 463.711 391.884C463.711 395.604 466.731 398.619 470.456 398.619Z" fill="#3F3D56"/>
<path d="M449.31 434.076C449.285 433.84 446.879 410.323 456.827 398.372C458.488 396.34 460.555 394.676 462.896 393.485C465.237 392.295 467.8 391.604 470.423 391.457L470.489 392.312C467.982 392.452 465.53 393.112 463.292 394.25C461.054 395.388 459.077 396.978 457.488 398.921C447.77 410.595 450.14 433.752 450.165 433.984L449.31 434.076Z" fill="#3F3D56"/>
<path d="M470.867 335.445C474.593 335.445 477.613 332.43 477.613 328.71C477.613 324.991 474.593 321.975 470.867 321.975C467.142 321.975 464.121 324.991 464.121 328.71C464.121 332.43 467.142 335.445 470.867 335.445Z" fill="#3F3D56"/>
<path d="M449.722 368.759C449.696 368.541 447.349 346.833 456.855 335.343C458.564 333.259 460.69 331.554 463.097 330.338C465.504 329.122 468.14 328.422 470.834 328.282L470.9 329.138C468.322 329.27 465.799 329.939 463.495 331.102C461.19 332.265 459.154 333.895 457.518 335.89C448.242 347.102 450.551 368.447 450.575 368.662L449.722 368.759Z" fill="#3F3D56"/>
<path d="M405.474 338.693H404.615V435.658H405.474V338.693Z" fill="#3F3D56"/>
<path d="M405.044 345.427C408.77 345.427 411.79 342.412 411.79 338.693C411.79 334.973 408.77 331.958 405.044 331.958C401.319 331.958 398.299 334.973 398.299 338.693C398.299 342.412 401.319 345.427 405.044 345.427Z" fill="#3F3D56"/>
<path d="M405.044 366.12C405.044 366.12 404.081 345.427 384.325 347.833Z" fill="#3F3D56"/>
<path d="M405.472 433.853L404.617 433.76C404.642 433.531 406.997 410.732 397.367 399.153C395.769 397.201 393.781 395.602 391.53 394.46C389.279 393.318 386.814 392.656 384.292 392.517L384.358 391.662C386.995 391.807 389.573 392.5 391.927 393.696C394.281 394.892 396.359 396.564 398.03 398.606C407.891 410.467 405.497 433.62 405.472 433.853Z" fill="#3F3D56"/>
<path d="M384.325 398.824C388.051 398.824 391.071 395.809 391.071 392.09C391.071 388.37 388.051 385.355 384.325 385.355C380.6 385.355 377.58 388.37 377.58 392.09C377.58 395.809 380.6 398.824 384.325 398.824Z" fill="#3F3D56"/>
<path d="M469.877 435.135H330.626V435.993H469.877V435.135Z" fill="#3F3D56"/>
<path d="M569.004 494.597H244.379V116H569.004V494.597ZM245.823 493.155H567.559V117.442H245.823V493.155Z" fill="#3F3D56"/>
<path d="M568.281 148.564H245.101V150.005H568.281V148.564Z" fill="#3F3D56"/>
<path d="M553.552 138.779C556.662 138.779 559.184 136.262 559.184 133.157C559.184 130.051 556.662 127.534 553.552 127.534C550.441 127.534 547.92 130.051 547.92 133.157C547.92 136.262 550.441 138.779 553.552 138.779Z" fill="white"/>
<path d="M553.551 139.14C552.366 139.14 551.207 138.789 550.222 138.132C549.236 137.474 548.468 136.54 548.015 135.446C547.561 134.353 547.442 133.15 547.674 131.989C547.905 130.829 548.476 129.763 549.314 128.926C550.152 128.089 551.22 127.519 552.382 127.288C553.545 127.058 554.75 127.176 555.845 127.629C556.94 128.082 557.876 128.849 558.534 129.833C559.193 130.817 559.544 131.973 559.544 133.157C559.543 134.743 558.911 136.264 557.787 137.386C556.664 138.507 555.14 139.138 553.551 139.14V139.14ZM553.551 127.894C552.509 127.894 551.49 128.203 550.623 128.781C549.756 129.36 549.081 130.181 548.682 131.143C548.283 132.105 548.179 133.163 548.382 134.183C548.585 135.204 549.087 136.142 549.824 136.878C550.562 137.614 551.501 138.115 552.523 138.318C553.546 138.521 554.605 138.417 555.568 138.018C556.532 137.62 557.355 136.946 557.934 136.08C558.513 135.215 558.822 134.198 558.822 133.157C558.821 131.762 558.265 130.424 557.277 129.437C556.289 128.451 554.949 127.896 553.551 127.894V127.894Z" fill="black"/>
<path d="M551.273 130.371L550.762 130.881L555.831 135.942L556.341 135.432L551.273 130.371Z" fill="black"/>
<path d="M555.831 130.371L550.762 135.432L551.273 135.942L556.341 130.881L555.831 130.371Z" fill="black"/>
<path d="M553.552 138.779C556.662 138.779 559.184 136.262 559.184 133.157C559.184 130.051 556.662 127.534 553.552 127.534C550.441 127.534 547.92 130.051 547.92 133.157C547.92 136.262 550.441 138.779 553.552 138.779Z" stroke="#3F3D56" stroke-width="2" stroke-miterlimit="10"/>
<path d="M553.551 139.14C552.366 139.14 551.207 138.789 550.222 138.132C549.236 137.474 548.468 136.54 548.015 135.446C547.561 134.353 547.442 133.15 547.674 131.989C547.905 130.829 548.476 129.763 549.314 128.926C550.152 128.089 551.22 127.519 552.382 127.288C553.545 127.058 554.75 127.176 555.845 127.629C556.94 128.082 557.876 128.849 558.534 129.833C559.193 130.817 559.544 131.973 559.544 133.157C559.543 134.743 558.911 136.264 557.787 137.386C556.664 138.507 555.14 139.138 553.551 139.14V139.14ZM553.551 127.894C552.509 127.894 551.49 128.203 550.623 128.781C549.756 129.36 549.081 130.181 548.682 131.143C548.283 132.105 548.179 133.163 548.382 134.183C548.585 135.204 549.087 136.142 549.824 136.878C550.562 137.614 551.501 138.115 552.523 138.318C553.546 138.521 554.605 138.417 555.568 138.018C556.532 137.62 557.355 136.946 557.934 136.08C558.513 135.215 558.822 134.198 558.822 133.157C558.821 131.762 558.265 130.424 557.277 129.437C556.289 128.451 554.949 127.896 553.551 127.894V127.894Z" stroke="#3F3D56" stroke-width="2" stroke-miterlimit="10"/>
<path d="M551.017 130.626L556.086 135.687" stroke="#3F3D56" stroke-width="2" stroke-miterlimit="10"/>
<path d="M551.273 130.371L550.762 130.881L555.831 135.942L556.341 135.432L551.273 130.371Z" stroke="#3F3D56" stroke-width="2" stroke-miterlimit="10"/>
<path d="M556.086 130.626L551.017 135.687" stroke="#3F3D56" stroke-width="2" stroke-miterlimit="10"/>
<path d="M555.831 130.371L550.762 135.432L551.273 135.942L556.341 130.881L555.831 130.371Z" stroke="#3F3D56" stroke-width="2" stroke-miterlimit="10"/>
<path d="M318.748 129.697H268.495V136.617H318.748V129.697Z" fill="#3F3D56"/>
<path d="M406.258 129.697H356.005V136.617H406.258V129.697Z" fill="#3F3D56"/>
<path d="M493.768 129.697H443.515V136.617H493.768V129.697Z" fill="#3F3D56"/>
<path d="M493.768 199.764H318.748V220.525H493.768V199.764Z" fill="#3F3D56"/>
<path d="M394.128 478.306C396.52 478.306 398.46 476.369 398.46 473.98C398.46 471.592 396.52 469.655 394.128 469.655C391.735 469.655 389.796 471.592 389.796 473.98C389.796 476.369 391.735 478.306 394.128 478.306Z" fill="#3F3D56"/>
<path d="M406.258 478.306C408.65 478.306 410.59 476.369 410.59 473.98C410.59 471.592 408.65 469.655 406.258 469.655C403.865 469.655 401.926 471.592 401.926 473.98C401.926 476.369 403.865 478.306 406.258 478.306Z" fill="#3F3D56"/>
<path d="M418.388 478.306C420.781 478.306 422.72 476.369 422.72 473.98C422.72 471.592 420.781 469.655 418.388 469.655C415.995 469.655 414.056 471.592 414.056 473.98C414.056 476.369 415.995 478.306 418.388 478.306Z" fill="#3F3D56"/>
<path d="M252.929 246.56H201.573V302.167H252.929V246.56Z" fill="#F2F2F2"/>
<path d="M259.992 298.86H207.191V241.811H259.992V298.86ZM208.635 297.418H258.547V243.253H208.635V297.418Z" fill="#3F3D56"/>
<path d="M223.826 274.307C225.823 274.307 227.443 272.69 227.443 270.696C227.443 268.702 225.823 267.085 223.826 267.085C221.829 267.085 220.209 268.702 220.209 270.696C220.209 272.69 221.829 274.307 223.826 274.307Z" fill="#1CA7EC"/>
<path d="M233.953 274.307C235.95 274.307 237.569 272.69 237.569 270.696C237.569 268.702 235.95 267.085 233.953 267.085C231.955 267.085 230.336 268.702 230.336 270.696C230.336 272.69 231.955 274.307 233.953 274.307Z" fill="#1CA7EC"/>
<path d="M244.079 274.307C246.077 274.307 247.696 272.69 247.696 270.696C247.696 268.702 246.077 267.085 244.079 267.085C242.082 267.085 240.463 268.702 240.463 270.696C240.463 272.69 242.082 274.307 244.079 274.307Z" fill="#1CA7EC"/>
<path d="M146.617 503.38C146.617 503.38 172.998 517.753 171.921 522.224C171.337 524.649 157.153 521.026 143.808 516.406C132.555 512.511 150.053 514.235 148.652 511.952C145.591 506.961 146.617 503.38 146.617 503.38Z" fill="#2F2E41"/>
<path d="M210.034 499.176C210.034 499.176 239.049 506.993 239.049 511.591C239.049 516.19 189.308 511.591 185.163 507.453C181.018 503.315 210.034 499.176 210.034 499.176Z" fill="#2F2E41"/>
<path d="M160.293 296.856L172.728 317.548C172.728 317.548 193.454 371.347 197.599 404.454C201.744 437.561 226.614 495.498 218.324 503.775C210.034 512.051 168.583 512.511 168.583 503.775V334.101L160.293 296.856Z" fill="#2F2E41"/>
<path opacity="0.1" d="M160.293 296.856L172.728 317.548C172.728 317.548 193.454 371.347 197.599 404.454C201.744 437.561 226.614 495.498 218.324 503.775C210.034 512.051 168.583 512.511 168.583 503.775V334.101L160.293 296.856Z" fill="black"/>
<path d="M127.133 280.303V296.856C127.133 300.995 152.003 300.995 152.003 300.995V284.441L127.133 280.303Z" fill="#A0616A"/>
<path d="M139.568 288.579L127.363 292.488C127.363 292.488 114.697 316.628 118.842 329.503C122.987 342.378 135.423 412.73 135.423 412.73V458.253C135.423 458.253 110.552 499.636 122.987 507.913C135.423 516.19 160.293 524.926 164.438 520.328C168.583 515.73 172.728 342.378 172.728 342.378V317.548L168.583 284.441L139.568 288.579Z" fill="#2F2E41"/>
<path d="M161.117 199.852C174.525 199.852 185.394 189.001 185.394 175.615C185.394 162.229 174.525 151.377 161.117 151.377C147.709 151.377 136.84 162.229 136.84 175.615C136.84 189.001 147.709 199.852 161.117 199.852Z" fill="#2F2E41"/>
<path d="M134.817 167.939C148.225 167.939 159.094 157.088 159.094 143.702C159.094 130.316 148.225 119.464 134.817 119.464C121.409 119.464 110.54 130.316 110.54 143.702C110.54 157.088 121.409 167.939 134.817 167.939Z" fill="#2F2E41"/>
<path d="M113.877 163.772C117.019 166.04 120.659 167.523 124.493 168.097C128.327 168.672 132.243 168.322 135.914 167.076C139.585 165.83 142.903 163.724 145.591 160.935C148.28 158.146 150.26 154.755 151.367 151.045C150.948 154.37 149.843 157.572 148.123 160.448C146.402 163.325 144.103 165.815 141.37 167.759C138.637 169.704 135.53 171.062 132.245 171.748C128.96 172.433 125.568 172.431 122.283 171.742C118.999 171.052 115.894 169.691 113.163 167.743C110.432 165.795 108.136 163.303 106.419 160.424C104.702 157.545 103.601 154.342 103.186 151.017C102.771 147.692 103.052 144.317 104.009 141.106C103.465 145.42 104.094 149.801 105.831 153.789C107.567 157.778 110.346 161.226 113.877 163.772V163.772Z" fill="#2F2E41"/>
<path d="M169.614 185.31C178.329 185.31 185.394 179.794 185.394 172.989C185.394 166.184 178.329 160.668 169.614 160.668C160.899 160.668 153.834 166.184 153.834 172.989C153.834 179.794 160.899 185.31 169.614 185.31Z" fill="#2F2E41"/>
<path d="M164.668 201.214C175.987 201.214 185.163 192.053 185.163 180.752C185.163 169.451 175.987 160.29 164.668 160.29C153.349 160.29 144.173 169.451 144.173 180.752C144.173 192.053 153.349 201.214 164.668 201.214Z" fill="#A0616A"/>
<path d="M152.003 193.397C152.003 193.397 156.148 201.674 147.858 205.812C139.568 209.95 164.438 226.504 164.438 226.504L172.728 197.535L152.003 193.397Z" fill="#A0616A"/>
<path d="M156.148 209.95C156.148 209.95 147.858 197.535 143.713 205.812C139.568 214.089 118.842 238.919 118.842 263.749C118.842 288.579 118.842 288.579 122.987 288.579C127.133 288.579 139.568 284.441 143.713 288.579C147.858 292.718 164.438 288.579 164.438 288.579L168.583 251.334C168.583 251.334 172.728 230.642 168.583 226.504C164.438 222.365 156.148 209.95 156.148 209.95Z" fill="#1CA7EC"/>
<path d="M135.423 226.504C135.423 226.504 122.987 288.579 135.423 292.718C147.858 296.856 185.163 312.95 185.163 308.811C185.163 304.673 189.309 300.535 189.309 300.535C189.309 300.535 193.454 304.673 193.454 300.535V292.718L152.003 276.164V234.781C152.003 234.781 160.293 214.089 152.003 214.089C143.713 214.089 135.423 226.504 135.423 226.504Z" fill="#1CA7EC"/>
<path d="M189.308 292.718C189.308 292.718 217.863 292.718 218.324 300.995C218.784 309.271 189.308 300.535 189.308 300.535V292.718Z" fill="#A0616A"/>
<path d="M165.249 177.055C175.075 173.965 181.646 167.042 179.926 161.592C178.207 156.142 168.847 154.229 159.022 157.319C149.196 160.41 142.625 167.333 144.344 172.783C146.064 178.233 155.423 180.145 165.249 177.055Z" fill="#2F2E41"/>
<defs>
<linearGradient id="paint0_linear" x1="106.415" y1="-33.9029" x2="446.629" y2="574.751" gradientUnits="userSpaceOnUse">
<stop stop-color="#1CA7EC"/>
<stop offset="1" stop-color="#8DCFF0"/>
</linearGradient>
<linearGradient id="paint1_linear" x1="-80" y1="104.5" x2="593.5" y2="558.5" gradientUnits="userSpaceOnUse">
<stop stop-color="#1CA7EC"/>
<stop offset="1" stop-color="#8DCFF0"/>
</linearGradient>
</defs>
</svg>
