<svg width="413" height="361" viewBox="0 0 413 361" fill="none" xmlns="http://www.w3.org/2000/svg">
<path d="M398.539 163.81H146.672V292.606H398.539V163.81Z" fill="#FCA311"/>
<path d="M311.853 153.727C324.724 153.727 335.159 143.31 335.159 130.459C335.159 117.608 324.724 107.191 311.853 107.191C298.982 107.191 288.547 117.608 288.547 130.459C288.547 143.31 298.982 153.727 311.853 153.727Z" fill="#FFB443"/>
<path d="M223.463 240.994H222.701V283.202H223.463V240.994Z" fill="#3F3D56"/>
<path d="M223.082 246.963C226.384 246.963 229.061 244.291 229.061 240.995C229.061 237.698 226.384 235.026 223.082 235.026C219.78 235.026 217.104 237.698 217.104 240.995C217.104 244.291 219.78 246.963 223.082 246.963Z" fill="#3F3D56"/>
<path d="M223.082 267.008C223.082 267.008 222.228 248.669 204.72 250.8Z" fill="#3F3D56"/>
<path d="M307.678 142.714H306.916V283.498H307.678V142.714Z" fill="#3F3D56"/>
<path d="M307.297 148.616C310.599 148.616 313.275 145.944 313.275 142.647C313.275 139.351 310.599 136.678 307.297 136.678C303.995 136.678 301.318 139.351 301.318 142.647C301.318 145.944 303.995 148.616 307.297 148.616Z" fill="#3F3D56"/>
<path d="M288.935 250.474C292.236 250.474 294.913 247.802 294.913 244.505C294.913 241.209 292.236 238.537 288.935 238.537C285.633 238.537 282.956 241.209 282.956 244.505C282.956 247.802 285.633 250.474 288.935 250.474Z" fill="#3F3D56"/>
<path d="M307.297 173.136C307.297 173.136 306.443 154.796 288.935 156.928Z" fill="#3F3D56"/>
<path d="M307.297 225.125C307.297 225.125 306.443 206.786 288.935 208.918Z" fill="#3F3D56"/>
<path d="M307.676 281.898L306.918 281.817C306.941 281.611 309.038 261.083 300.427 250.74C299.019 249.019 297.267 247.61 295.284 246.601C293.3 245.593 291.128 245.009 288.905 244.885L288.964 244.126C291.289 244.257 293.561 244.869 295.635 245.924C297.71 246.979 299.541 248.454 301.014 250.255C309.83 260.847 307.698 281.689 307.676 281.898Z" fill="#3F3D56"/>
<path d="M325.662 250.474C328.964 250.474 331.64 247.802 331.64 244.505C331.64 241.209 328.964 238.537 325.662 238.537C322.36 238.537 319.683 241.209 319.683 244.505C319.683 247.802 322.36 250.474 325.662 250.474Z" fill="#3F3D56"/>
<path d="M306.921 281.898C306.898 281.689 304.766 260.847 313.583 250.255C315.055 248.454 316.887 246.979 318.961 245.924C321.036 244.869 323.308 244.257 325.632 244.126L325.691 244.885C323.468 245.009 321.296 245.593 319.312 246.602C317.329 247.61 315.577 249.02 314.169 250.741C305.556 261.088 307.656 281.611 307.678 281.817L306.921 281.898Z" fill="#3F3D56"/>
<path d="M326.026 194.485C329.328 194.485 332.004 191.813 332.004 188.516C332.004 185.22 329.328 182.548 326.026 182.548C322.724 182.548 320.047 185.22 320.047 188.516C320.047 191.813 322.724 194.485 326.026 194.485Z" fill="#3F3D56"/>
<path d="M307.285 224.01C307.263 223.817 305.183 204.578 313.608 194.395C315.122 192.548 317.006 191.037 319.14 189.959C321.273 188.881 323.609 188.261 325.997 188.137L326.055 188.896C323.77 189.013 321.534 189.606 319.492 190.636C317.449 191.667 315.645 193.112 314.195 194.879C305.974 204.816 308.02 223.734 308.042 223.924L307.285 224.01Z" fill="#3F3D56"/>
<path d="M268.071 197.364H267.309V283.3H268.071V197.364Z" fill="#3F3D56"/>
<path d="M267.69 203.332C270.991 203.332 273.668 200.66 273.668 197.364C273.668 194.067 270.991 191.395 267.69 191.395C264.388 191.395 261.711 194.067 261.711 197.364C261.711 200.66 264.388 203.332 267.69 203.332Z" fill="#3F3D56"/>
<path d="M267.69 221.672C267.69 221.672 266.836 203.332 249.328 205.464Z" fill="#3F3D56"/>
<path d="M268.069 281.7L267.311 281.618C267.333 281.415 269.42 261.209 260.886 250.947C259.469 249.217 257.707 247.8 255.712 246.788C253.717 245.775 251.533 245.189 249.298 245.066L249.357 244.308C251.694 244.437 253.978 245.051 256.064 246.111C258.151 247.17 259.993 248.653 261.473 250.463C270.213 260.974 268.091 281.494 268.069 281.7Z" fill="#3F3D56"/>
<path d="M249.327 250.656C252.629 250.656 255.306 247.984 255.306 244.687C255.306 241.391 252.629 238.718 249.327 238.718C246.026 238.718 243.349 241.391 243.349 244.687C243.349 247.984 246.026 250.656 249.327 250.656Z" fill="#3F3D56"/>
<path d="M325.148 282.837H201.736V283.597H325.148V282.837Z" fill="#3F3D56"/>
<path d="M413 335.536H125.299V0H413V335.536ZM126.579 334.258H411.72V1.27795H126.579V334.258Z" fill="#3F3D56"/>
<path d="M412.36 28.8597H125.939V30.1377H412.36V28.8597Z" fill="#3F3D56"/>
<path d="M399.306 20.1885C402.063 20.1885 404.297 17.9574 404.297 15.2053C404.297 12.4531 402.063 10.2221 399.306 10.2221C396.549 10.2221 394.315 12.4531 394.315 15.2053C394.315 17.9574 396.549 20.1885 399.306 20.1885Z" fill="white"/>
<path d="M399.306 20.5081C398.255 20.5081 397.228 20.1971 396.355 19.6144C395.481 19.0318 394.801 18.2036 394.399 17.2346C393.997 16.2657 393.892 15.1995 394.096 14.1708C394.301 13.1422 394.807 12.1973 395.55 11.4557C396.293 10.7141 397.239 10.2091 398.27 10.0045C399.3 9.79987 400.368 9.90489 401.338 10.3062C402.309 10.7076 403.138 11.3873 403.722 12.2593C404.306 13.1313 404.617 14.1566 404.617 15.2054C404.616 16.6113 404.055 17.9592 403.06 18.9533C402.064 19.9474 400.714 20.5066 399.306 20.5081V20.5081ZM399.306 10.5416C398.382 10.5416 397.479 10.8151 396.71 11.3276C395.942 11.84 395.344 12.5684 394.99 13.4206C394.636 14.2728 394.544 15.2105 394.724 16.1152C394.904 17.0199 395.349 17.8509 396.003 18.5032C396.656 19.1554 397.488 19.5996 398.394 19.7795C399.301 19.9595 400.24 19.8671 401.093 19.5141C401.947 19.1611 402.676 18.5634 403.19 17.7964C403.703 17.0295 403.977 16.1278 403.977 15.2054C403.976 13.9688 403.483 12.7833 402.607 11.909C401.732 11.0346 400.544 10.5429 399.306 10.5416V10.5416Z" fill="#14213D"/>
<path d="M397.286 12.7368L396.834 13.1885L401.326 17.6736L401.778 17.2218L397.286 12.7368Z" fill="#14213D"/>
<path d="M401.326 12.7369L396.834 17.2217L397.286 17.6735L401.778 13.1887L401.326 12.7369Z" fill="#14213D"/>
<path d="M399.306 20.1885C402.063 20.1885 404.297 17.9574 404.297 15.2053C404.297 12.4531 402.063 10.2221 399.306 10.2221C396.549 10.2221 394.315 12.4531 394.315 15.2053C394.315 17.9574 396.549 20.1885 399.306 20.1885Z" stroke="#3F3D56" stroke-width="2" stroke-miterlimit="10"/>
<path d="M399.306 20.5081C398.255 20.5081 397.228 20.1971 396.355 19.6144C395.481 19.0318 394.801 18.2036 394.399 17.2346C393.997 16.2657 393.892 15.1995 394.096 14.1708C394.301 13.1422 394.807 12.1973 395.55 11.4557C396.293 10.7141 397.239 10.2091 398.27 10.0045C399.3 9.79987 400.368 9.90489 401.338 10.3062C402.309 10.7076 403.138 11.3873 403.722 12.2593C404.306 13.1313 404.617 14.1566 404.617 15.2054C404.616 16.6113 404.055 17.9592 403.06 18.9533C402.064 19.9474 400.714 20.5066 399.306 20.5081V20.5081ZM399.306 10.5416C398.382 10.5416 397.479 10.8151 396.71 11.3276C395.942 11.84 395.344 12.5684 394.99 13.4206C394.636 14.2728 394.544 15.2105 394.724 16.1152C394.904 17.0199 395.349 17.8509 396.003 18.5032C396.656 19.1554 397.488 19.5996 398.394 19.7795C399.301 19.9595 400.24 19.8671 401.093 19.5141C401.947 19.1611 402.676 18.5634 403.19 17.7964C403.703 17.0295 403.977 16.1278 403.977 15.2054C403.976 13.9688 403.483 12.7833 402.607 11.909C401.732 11.0346 400.544 10.5429 399.306 10.5416V10.5416Z" stroke="#3F3D56" stroke-width="2" stroke-miterlimit="10"/>
<path d="M397.06 12.9629L401.552 17.4477" stroke="#3F3D56" stroke-width="2" stroke-miterlimit="10"/>
<path d="M397.286 12.7368L396.834 13.1885L401.326 17.6736L401.778 17.2218L397.286 12.7368Z" stroke="#3F3D56" stroke-width="2" stroke-miterlimit="10"/>
<path d="M401.552 12.9629L397.06 17.4477" stroke="#3F3D56" stroke-width="2" stroke-miterlimit="10"/>
<path d="M401.326 12.7369L396.834 17.2217L397.286 17.6735L401.778 13.1887L401.326 12.7369Z" stroke="#3F3D56" stroke-width="2" stroke-miterlimit="10"/>
<path d="M191.209 12.1387H146.672V18.2719H191.209V12.1387Z" fill="#3F3D56"/>
<path d="M268.765 12.1387H224.228V18.2719H268.765V12.1387Z" fill="#3F3D56"/>
<path d="M346.322 12.1387H301.784V18.2719H346.322V12.1387Z" fill="#3F3D56"/>
<path d="M346.322 74.237H191.209V92.6365H346.322V74.237Z" fill="#3F3D56"/>
<path d="M258.015 321.097C260.135 321.097 261.854 319.381 261.854 317.264C261.854 315.147 260.135 313.43 258.015 313.43C255.895 313.43 254.176 315.147 254.176 317.264C254.176 319.381 255.895 321.097 258.015 321.097Z" fill="#3F3D56"/>
<path d="M268.765 321.097C270.886 321.097 272.605 319.381 272.605 317.264C272.605 315.147 270.886 313.43 268.765 313.43C266.645 313.43 264.926 315.147 264.926 317.264C264.926 319.381 266.645 321.097 268.765 321.097Z" fill="#3F3D56"/>
<path d="M279.516 321.097C281.636 321.097 283.355 319.381 283.355 317.264C283.355 315.147 281.636 313.43 279.516 313.43C277.395 313.43 275.676 315.147 275.676 317.264C275.676 319.381 277.395 321.097 279.516 321.097Z" fill="#3F3D56"/>
<path d="M132.876 115.71H87.361V164.992H132.876V115.71Z" fill="#F2F2F2"/>
<path d="M139.135 162.061H92.34V111.501H139.135V162.061ZM93.62 160.783H137.855V112.779H93.62V160.783Z" fill="#3F3D56"/>
<path d="M107.083 140.301C108.854 140.301 110.289 138.868 110.289 137.101C110.289 135.334 108.854 133.901 107.083 133.901C105.313 133.901 103.878 135.334 103.878 137.101C103.878 138.868 105.313 140.301 107.083 140.301Z" fill="#FCA311"/>
<path d="M116.058 140.301C117.828 140.301 119.264 138.868 119.264 137.101C119.264 135.334 117.828 133.901 116.058 133.901C114.288 133.901 112.853 135.334 112.853 137.101C112.853 138.868 114.288 140.301 116.058 140.301Z" fill="#FCA311"/>
<path d="M125.033 140.301C126.803 140.301 128.238 138.868 128.238 137.101C128.238 135.334 126.803 133.901 125.033 133.901C123.263 133.901 121.828 135.334 121.828 137.101C121.828 138.868 123.263 140.301 125.033 140.301Z" fill="#FCA311"/>
<path d="M38.6559 343.32C38.6559 343.32 62.0364 356.057 61.0822 360.02C60.5645 362.169 47.9938 358.958 36.1669 354.864C26.1933 351.411 41.701 352.94 40.4598 350.916C37.7468 346.493 38.6559 343.32 38.6559 343.32Z" fill="#2F2E41"/>
<path d="M94.8598 339.594C94.8598 339.594 120.575 346.522 120.575 350.597C120.575 354.672 76.4918 350.597 72.8182 346.929C69.1446 343.261 94.8598 339.594 94.8598 339.594Z" fill="#2F2E41"/>
<path d="M50.7766 160.286L61.7974 178.624C61.7974 178.624 80.1654 226.304 83.839 255.645C87.5126 284.986 109.554 336.334 102.207 343.669C94.8598 351.004 58.1237 351.412 58.1237 343.669V193.295L50.7766 160.286Z" fill="#2F2E41"/>
<path opacity="0.1" d="M50.7766 160.286L61.7974 178.624C61.7974 178.624 80.1654 226.304 83.839 255.645C87.5126 284.986 109.554 336.334 102.207 343.669C94.8598 351.004 58.1237 351.412 58.1237 343.669V193.295L50.7766 160.286Z" fill="#14213D"/>
<path d="M21.3877 145.615V160.286C21.3877 163.953 43.4293 163.953 43.4293 163.953V149.283L21.3877 145.615Z" fill="#CFA781"/>
<path d="M32.4085 152.95L21.5918 156.414C21.5918 156.414 10.3669 177.809 14.0405 189.219C17.7141 200.63 28.7349 262.98 28.7349 262.98V303.325C28.7349 303.325 6.6933 340.001 17.7141 347.337C28.7349 354.672 50.7766 362.415 54.4502 358.34C58.1238 354.265 61.7974 200.63 61.7974 200.63V178.624L58.1238 149.283L32.4085 152.95Z" fill="#2F2E41"/>
<path d="M51.5067 74.3151C63.3894 74.3151 73.0223 64.6977 73.0223 52.8342C73.0223 40.9706 63.3894 31.3533 51.5067 31.3533C39.6239 31.3533 29.991 40.9706 29.991 52.8342C29.991 64.6977 39.6239 74.3151 51.5067 74.3151Z" fill="#2F2E41"/>
<path d="M28.1981 46.0319C40.0808 46.0319 49.7137 36.4146 49.7137 24.551C49.7137 12.6875 40.0808 3.07016 28.1981 3.07016C16.3153 3.07016 6.68243 12.6875 6.68243 24.551C6.68243 36.4146 16.3153 46.0319 28.1981 46.0319Z" fill="#2F2E41"/>
<path d="M9.63967 42.3386C12.4245 44.348 15.6508 45.6625 19.0487 46.1719C22.4466 46.6813 25.9173 46.3708 29.1704 45.2665C32.4235 44.1621 35.3644 42.296 37.7471 39.8243C40.1297 37.3526 41.8848 34.3471 42.8655 31.0593C42.4944 34.0057 41.5155 36.8433 39.9905 39.3928C38.4656 41.9424 36.4278 44.1487 34.0057 45.8723C31.5836 47.5959 28.8299 48.7994 25.9184 49.4069C23.007 50.0144 20.0009 50.0126 17.0902 49.4017C14.1794 48.7908 11.4272 47.584 9.00714 45.8575C6.58712 44.131 4.5519 41.9223 3.02999 39.3709C1.50808 36.8195 0.532547 33.9808 0.164956 31.034C-0.202636 28.0872 0.0456965 25.0963 0.894304 22.2502C0.412339 26.074 0.969975 29.9568 2.50871 33.4913C4.04744 37.0258 6.51056 40.0818 9.63967 42.3386V42.3386Z" fill="#2F2E41"/>
<path d="M59.0371 61.4265C66.7609 61.4265 73.0222 56.5377 73.0222 50.5071C73.0222 44.4764 66.7609 39.5876 59.0371 39.5876C51.3133 39.5876 45.0519 44.4764 45.0519 50.5071C45.0519 56.5377 51.3133 61.4265 59.0371 61.4265Z" fill="#2F2E41"/>
<path d="M54.6543 75.5216C64.6859 75.5216 72.8182 67.4025 72.8182 57.387C72.8182 47.3716 64.6859 39.2524 54.6543 39.2524C44.6226 39.2524 36.4904 47.3716 36.4904 57.387C36.4904 67.4025 44.6226 75.5216 54.6543 75.5216Z" fill="#CFA781"/>
<path d="M43.4294 68.5938C43.4294 68.5938 47.103 75.9292 39.7558 79.5968C32.4086 83.2645 54.4502 97.9352 54.4502 97.9352L61.7974 72.2615L43.4294 68.5938Z" fill="#CFA781"/>
<path d="M47.103 83.2645C47.103 83.2645 39.7558 72.2615 36.0821 79.5968C32.4085 86.9322 14.0405 108.938 14.0405 130.944C14.0405 152.95 14.0405 152.95 17.7141 152.95C21.3877 152.95 32.4085 149.283 36.0821 152.95C39.7557 156.618 54.4502 152.95 54.4502 152.95L58.1238 119.941C58.1238 119.941 61.7974 101.603 58.1238 97.9352C54.4502 94.2675 47.103 83.2645 47.103 83.2645Z" fill="#FCA311"/>
<path d="M28.735 97.9352C28.735 97.9352 17.7142 152.95 28.735 156.618C39.7558 160.286 72.8182 174.549 72.8182 170.881C72.8182 167.213 76.4918 163.546 76.4918 163.546C76.4918 163.546 80.1654 167.213 80.1654 163.546V156.618L43.4294 141.947V105.271C43.4294 105.271 50.7766 86.9322 43.4294 86.9322C36.0822 86.9322 28.735 97.9352 28.735 97.9352Z" fill="#FCA311"/>
<path d="M76.4918 156.618C76.4918 156.618 101.799 156.618 102.207 163.953C102.615 171.289 76.4918 163.546 76.4918 163.546V156.618Z" fill="#CFA781"/>
<path d="M55.1688 54.1107C63.8768 51.372 69.7007 45.2362 68.1767 40.4062C66.6527 35.5762 58.358 33.881 49.6499 36.6197C40.9418 39.3585 35.118 45.4942 36.642 50.3242C38.166 55.1542 46.4607 56.8495 55.1688 54.1107Z" fill="#2F2E41"/>
</svg>
