<svg width="137" height="19" viewBox="0 0 137 19" fill="none" xmlns="http://www.w3.org/2000/svg">
<path d="M4.26172 18H0.746094V0.9375H4.26172V18ZM21.4062 18H17.8906L11.0469 6.77344V18H7.53125V0.9375H11.0469L17.9023 12.1875V0.9375H21.4062V18ZM34.7422 11.0273H27.9922V18H24.4766V0.9375H35.5859V3.78516H27.9922V8.19141H34.7422V11.0273ZM51.6406 9.85547C51.6406 11.5352 51.3438 13.0078 50.75 14.2734C50.1562 15.5391 49.3047 16.5156 48.1953 17.2031C47.0938 17.8906 45.8281 18.2344 44.3984 18.2344C42.9844 18.2344 41.7227 17.8945 40.6133 17.2148C39.5039 16.5352 38.6445 15.5664 38.0352 14.3086C37.4258 13.043 37.1172 11.5898 37.1094 9.94922V9.10547C37.1094 7.42578 37.4102 5.94922 38.0117 4.67578C38.6211 3.39453 39.4766 2.41406 40.5781 1.73438C41.6875 1.04687 42.9531 0.703125 44.375 0.703125C45.7969 0.703125 47.0586 1.04687 48.1602 1.73438C49.2695 2.41406 50.125 3.39453 50.7266 4.67578C51.3359 5.94922 51.6406 7.42188 51.6406 9.09375V9.85547ZM48.0781 9.08203C48.0781 7.29297 47.7578 5.93359 47.1172 5.00391C46.4766 4.07422 45.5625 3.60938 44.375 3.60938C43.1953 3.60938 42.2852 4.07031 41.6445 4.99219C41.0039 5.90625 40.6797 7.25 40.6719 9.02344V9.85547C40.6719 11.5977 40.9922 12.9492 41.6328 13.9102C42.2734 14.8711 43.1953 15.3516 44.3984 15.3516C45.5781 15.3516 46.4844 14.8906 47.1172 13.9688C47.75 13.0391 48.0703 11.6875 48.0781 9.91406V9.08203ZM60.5117 11.7539H57.7109V18H54.1953V0.9375H60.5352C62.5508 0.9375 64.1055 1.38672 65.1992 2.28516C66.293 3.18359 66.8398 4.45312 66.8398 6.09375C66.8398 7.25781 66.5859 8.23047 66.0781 9.01172C65.5781 9.78516 64.8164 10.4023 63.793 10.8633L67.4844 17.8359V18H63.7109L60.5117 11.7539ZM57.7109 8.90625H60.5469C61.4297 8.90625 62.1133 8.68359 62.5977 8.23828C63.082 7.78516 63.3242 7.16406 63.3242 6.375C63.3242 5.57031 63.0938 4.9375 62.6328 4.47656C62.1797 4.01562 61.4805 3.78516 60.5352 3.78516H57.7109V8.90625Z" fill="#14213D"/>
<path d="M74.1172 0.9375L78.5 13.3125L82.8594 0.9375H87.4766V18H83.9492V13.3359L84.3008 5.28516L79.6953 18H77.2812L72.6875 5.29688L73.0391 13.3359V18H69.5234V0.9375H74.1172ZM100.812 10.6055H94.0625V15.1758H101.984V18H90.5469V0.9375H101.961V3.78516H94.0625V7.85156H100.812V10.6055ZM117.922 18H114.406L107.562 6.77344V18H104.047V0.9375H107.562L114.418 12.1875V0.9375H117.922V18ZM133.484 3.78516H128.258V18H124.742V3.78516H119.586V0.9375H133.484V3.78516ZM132.43 16.3359C132.43 15.7969 132.609 15.3594 132.969 15.0234C133.336 14.6875 133.793 14.5195 134.34 14.5195C134.895 14.5195 135.352 14.6875 135.711 15.0234C136.078 15.3594 136.262 15.7969 136.262 16.3359C136.262 16.8672 136.082 17.3008 135.723 17.6367C135.363 17.9648 134.902 18.1289 134.34 18.1289C133.785 18.1289 133.328 17.9648 132.969 17.6367C132.609 17.3008 132.43 16.8672 132.43 16.3359Z" fill="#FCA311"/>
</svg>
