<svg width="80" height="80" viewBox="0 0 80 80" fill="none" xmlns="http://www.w3.org/2000/svg">
<rect width="80" height="80" fill="#AF9F8C" fill-opacity="0.75"/>
<path d="M19.2402 54V28.3008H26.2188V54H19.2402ZM43.9551 54V43.1367C43.9551 41.8125 43.7617 40.8164 43.375 40.1484C43 39.4688 42.3906 39.1289 41.5469 39.1289C40.3867 39.1289 39.5488 39.5918 39.0332 40.5176C38.5176 41.4434 38.2598 43.0312 38.2598 45.2812V54H31.3867V34.084H36.5723L37.4336 36.5449H37.8379C38.4238 35.6074 39.2324 34.9043 40.2637 34.4355C41.3066 33.9668 42.502 33.7324 43.8496 33.7324C46.0527 33.7324 47.7637 34.3711 48.9824 35.6484C50.2129 36.9258 50.8281 38.7246 50.8281 41.0449V54H43.9551ZM54.6426 51.082C54.6426 50.0039 54.959 49.1719 55.5918 48.5859C56.2363 48 57.168 47.707 58.3867 47.707C59.5469 47.707 60.4375 48 61.0586 48.5859C61.6797 49.1719 61.9902 50.0039 61.9902 51.082C61.9902 52.1367 61.668 52.9629 61.0234 53.5605C60.3906 54.1465 59.5117 54.4395 58.3867 54.4395C57.2266 54.4395 56.3125 54.1465 55.6445 53.5605C54.9766 52.9746 54.6426 52.1484 54.6426 51.082Z" fill="white"/>
</svg>
